<?xml version="1.0" encoding="UTF-8"?>
<svg xmlns="http://www.w3.org/2000/svg" xmlns:xlink="http://www.w3.org/1999/xlink" width="130pt" height="130pt" viewBox="0 0 130 130" version="1.1">
<defs>
<linearGradient id="linear0" gradientUnits="userSpaceOnUse" x1="-666.11664" y1="413.04492" x2="-553.2699" y2="525.90759" gradientTransform="matrix(0.811557,0,0,0.811443,559.818789,-315.935547)">
<stop offset="0" style="stop-color:rgb(0%,0%,0%);stop-opacity:1;"/>
<stop offset="1" style="stop-color:rgb(100%,100%,100%);stop-opacity:1;"/>
</linearGradient>
<linearGradient id="linear1" gradientUnits="userSpaceOnUse" x1="-553.26971" y1="525.90778" x2="-666.11639" y2="413.0452" gradientTransform="matrix(0.811557,0,0,0.811443,559.818789,-315.935547)">
<stop offset="0" style="stop-color:rgb(0%,0%,0%);stop-opacity:1;"/>
<stop offset="1" style="stop-color:rgb(100%,100%,100%);stop-opacity:1;"/>
</linearGradient>
</defs>
<g id="surface1">
<path style=" stroke:none;fill-rule:evenodd;fill:url(#linear0);" d="M 64.890625 96.769531 C 93.652344 135.976562 121.796875 85.824219 121.753906 55.667969 C 121.707031 20.007812 85.566406 0.0820312 64.867188 0.0820312 C 31.640625 0.0820312 0 27.539062 0 65.109375 C 0 106.867188 36.269531 130 64.867188 130 C 58.394531 129.066406 36.832031 124.449219 36.539062 74.777344 C 36.34375 41.183594 47.5 27.761719 64.820312 33.664062 C 65.207031 33.808594 83.925781 41.191406 83.925781 65.3125 C 83.925781 89.328125 64.890625 96.769531 64.890625 96.769531 Z M 64.890625 96.769531 "/>
<path style=" stroke:none;fill-rule:evenodd;fill:url(#linear1);" d="M 64.855469 33.636719 C 45.851562 27.085938 22.570312 42.75 22.570312 74.125 C 22.570312 125.351562 60.53125 130 65.132812 130 C 98.359375 130 130 102.539062 130 64.972656 C 130 23.210938 93.730469 0.0820312 65.132812 0.0820312 C 73.054688 -1.015625 107.824219 8.652344 107.824219 56.171875 C 107.824219 87.164062 81.863281 104.035156 64.976562 96.824219 C 64.585938 96.679688 45.871094 89.296875 45.871094 65.179688 C 45.871094 41.160156 64.855469 33.636719 64.855469 33.636719 Z M 64.855469 33.636719 "/>
</g>
</svg>
