<?xml version="1.0" encoding="UTF-8"?>
<svg xmlns="http://www.w3.org/2000/svg" xmlns:xlink="http://www.w3.org/1999/xlink" width="337pt" height="100pt" viewBox="0 0 337 100" version="1.1">
<defs>
<linearGradient id="linear0" gradientUnits="userSpaceOnUse" x1="26.648937" y1="20.603781" x2="135.66525" y2="114.39767" gradientTransform="matrix(0.390075,0,0,0.394425,-6.517933,-3.684248)">
<stop offset="0" style="stop-color:rgb(35.294118%,62.352941%,83.137255%);stop-opacity:1;"/>
<stop offset="1" style="stop-color:rgb(18.823529%,41.176471%,59.607843%);stop-opacity:1;"/>
</linearGradient>
<linearGradient id="linear1" gradientUnits="userSpaceOnUse" x1="150.96111" y1="192.35176" x2="112.03144" y2="137.27299" gradientTransform="matrix(0.390075,0,0,0.394425,-6.517933,-3.684248)">
<stop offset="0" style="stop-color:rgb(100%,83.137255%,23.137255%);stop-opacity:1;"/>
<stop offset="1" style="stop-color:rgb(100%,90.980392%,45.098039%);stop-opacity:1;"/>
</linearGradient>
<filter id="alpha" filterUnits="objectBoundingBox" x="0%" y="0%" width="100%" height="100%">
  <feColorMatrix type="matrix" in="SourceGraphic" values="0 0 0 0 1 0 0 0 0 1 0 0 0 0 1 0 0 0 1 0"/>
</filter>
<mask id="mask0">
  <g filter="url(#alpha)">
<rect x="0" y="0" width="337" height="100" style="fill:rgb(0%,0%,0%);fill-opacity:0.443137;stroke:none;"/>
  </g>
</mask>
<radialGradient id="radial0" gradientUnits="userSpaceOnUse" cx="61.518883" cy="132.28575" fx="61.518883" fy="132.28575" r="29.036913" gradientTransform="matrix(0.0000000121282,-0.16663,0.731323,0.000000263302,-54.162299,103.37435)">
<stop offset="0" style="stop-color:rgb(72.156863%,72.156863%,72.156863%);stop-opacity:0.498039;"/>
<stop offset="1" style="stop-color:rgb(49.803922%,49.803922%,49.803922%);stop-opacity:0;"/>
</radialGradient>
<clipPath id="clip1">
  <rect x="0" y="0" width="337" height="100"/>
</clipPath>
<g id="surface5" clip-path="url(#clip1)">
<path style=" stroke:none;fill-rule:nonzero;fill:url(#radial0);" d="M 67.496094 93.125 C 67.496094 95.796875 56.339844 97.960938 42.582031 97.960938 C 28.820312 97.960938 17.667969 95.796875 17.667969 93.125 C 17.667969 90.453125 28.820312 88.285156 42.582031 88.285156 C 56.339844 88.285156 67.496094 90.453125 67.496094 93.125 Z M 67.496094 93.125 "/>
</g>
</defs>
<g id="surface1">
<path style=" stroke:none;fill-rule:nonzero;fill:rgb(39.215686%,39.215686%,39.215686%);fill-opacity:1;" d="M 128.015625 43.007812 C 128.015625 32.894531 125.132812 27.703125 119.375 27.417969 C 117.085938 27.308594 114.847656 27.675781 112.671875 28.519531 C 110.933594 29.144531 109.765625 29.761719 109.148438 30.382812 L 109.148438 54.519531 C 112.832031 56.835938 116.105469 57.910156 118.957031 57.742188 C 124.992188 57.34375 128.015625 52.433594 128.015625 43.007812 Z M 135.117188 43.425781 C 135.117188 48.5625 133.914062 52.828125 131.496094 56.21875 C 128.796875 60.058594 125.058594 62.035156 120.28125 62.140625 C 116.679688 62.257812 112.96875 61.125 109.148438 58.757812 L 109.148438 80.695312 L 102.972656 78.488281 L 102.972656 29.792969 C 103.988281 28.546875 105.289062 27.480469 106.871094 26.570312 C 110.550781 24.425781 115.015625 23.324219 120.273438 23.269531 L 120.363281 23.355469 C 125.167969 23.296875 128.871094 25.273438 131.472656 29.28125 C 133.902344 32.953125 135.117188 37.664062 135.117188 43.425781 Z M 135.117188 43.425781 "/>
<path style=" stroke:none;fill-rule:nonzero;fill:rgb(39.215686%,39.215686%,39.215686%);fill-opacity:1;" d="M 172.871094 57.824219 C 172.871094 64.714844 172.183594 69.484375 170.804688 72.140625 C 169.417969 74.792969 166.78125 76.910156 162.890625 78.488281 C 159.734375 79.734375 156.320312 80.410156 152.65625 80.527344 L 151.636719 76.628906 C 155.359375 76.121094 157.980469 75.613281 159.503906 75.105469 C 162.496094 74.089844 164.550781 72.53125 165.679688 70.445312 C 166.585938 68.75 167.03125 65.507812 167.03125 60.707031 L 167.03125 59.097656 C 162.808594 61.019531 158.382812 61.972656 153.75 61.972656 C 150.710938 61.972656 148.027344 61.019531 145.714844 59.097656 C 143.121094 57.003906 141.820312 54.351562 141.820312 51.136719 L 141.820312 25.386719 L 148 23.269531 L 148 49.1875 C 148 51.953125 148.890625 54.085938 150.675781 55.582031 C 152.460938 57.078125 154.773438 57.796875 157.605469 57.742188 C 160.4375 57.679688 163.46875 56.585938 166.695312 54.4375 L 166.695312 24.203125 L 172.871094 24.203125 Z M 172.871094 57.824219 "/>
<path style=" stroke:none;fill-rule:nonzero;fill:rgb(39.215686%,39.215686%,39.215686%);fill-opacity:1;" d="M 196.988281 61.804688 C 196.25 61.863281 195.574219 61.890625 194.953125 61.890625 C 191.457031 61.890625 188.734375 61.058594 186.789062 59.386719 C 184.847656 57.714844 183.875 55.40625 183.875 52.460938 L 183.875 28.09375 L 179.644531 28.09375 L 179.644531 24.203125 L 183.875 24.203125 L 183.875 13.867188 L 190.046875 11.667969 L 190.046875 24.203125 L 196.988281 24.203125 L 196.988281 28.09375 L 190.046875 28.09375 L 190.046875 52.292969 C 190.046875 54.613281 190.667969 56.261719 191.910156 57.222656 C 192.980469 58.011719 194.675781 58.464844 196.988281 58.582031 Z M 196.988281 61.804688 "/>
<path style=" stroke:none;fill-rule:nonzero;fill:rgb(39.215686%,39.215686%,39.215686%);fill-opacity:1;" d="M 234.390625 61.296875 L 228.210938 61.296875 L 228.210938 37.414062 C 228.210938 34.984375 227.644531 32.894531 226.515625 31.148438 C 225.210938 29.171875 223.402344 28.183594 221.074219 28.183594 C 218.242188 28.183594 214.703125 29.679688 210.449219 32.671875 L 210.449219 61.296875 L 204.273438 61.296875 L 204.273438 4.214844 L 210.449219 2.265625 L 210.449219 28.265625 C 214.398438 25.386719 218.710938 23.945312 223.394531 23.945312 C 226.664062 23.945312 229.316406 25.050781 231.34375 27.25 C 233.375 29.449219 234.390625 32.191406 234.390625 35.464844 Z M 234.390625 61.296875 "/>
<path style=" stroke:none;fill-rule:nonzero;fill:rgb(39.215686%,39.215686%,39.215686%);fill-opacity:1;" d="M 267.222656 42.03125 C 267.222656 38.148438 266.488281 34.9375 265.019531 32.398438 C 263.277344 29.304688 260.566406 27.675781 256.902344 27.507812 C 250.132812 27.898438 246.753906 32.757812 246.753906 42.074219 C 246.753906 46.34375 247.457031 49.910156 248.875 52.773438 C 250.6875 56.421875 253.402344 58.222656 257.027344 58.160156 C 263.824219 58.109375 267.222656 52.734375 267.222656 42.03125 Z M 273.988281 42.074219 C 273.988281 47.601562 272.578125 52.207031 269.757812 55.878906 C 266.65625 59.996094 262.371094 62.0625 256.902344 62.0625 C 251.484375 62.0625 247.257812 59.996094 244.210938 55.878906 C 241.445312 52.207031 240.066406 47.601562 240.066406 42.074219 C 240.066406 36.875 241.5625 32.5 244.546875 28.941406 C 247.707031 25.164062 251.855469 23.269531 256.984375 23.269531 C 262.113281 23.269531 266.292969 25.164062 269.507812 28.941406 C 272.496094 32.5 273.988281 36.875 273.988281 42.074219 Z M 273.988281 42.074219 "/>
<path style=" stroke:none;fill-rule:nonzero;fill:rgb(39.215686%,39.215686%,39.215686%);fill-opacity:1;" d="M 309.40625 61.296875 L 303.230469 61.296875 L 303.230469 36.0625 C 303.230469 33.292969 302.398438 31.132812 300.734375 29.578125 C 299.070312 28.027344 296.855469 27.277344 294.089844 27.335938 C 291.15625 27.390625 288.367188 28.351562 285.714844 30.214844 L 285.714844 61.296875 L 279.539062 61.296875 L 279.539062 29.449219 C 283.09375 26.855469 286.367188 25.164062 289.351562 24.371094 C 292.171875 23.632812 294.660156 23.269531 296.800781 23.269531 C 298.269531 23.269531 299.644531 23.410156 300.945312 23.695312 C 303.371094 24.257812 305.34375 25.300781 306.863281 26.828125 C 308.5625 28.519531 309.40625 30.550781 309.40625 32.929688 Z M 309.40625 61.296875 "/>
<path style=" stroke:none;fill-rule:nonzero;fill:url(#linear0);" d="M 41.957031 4.441406 C 38.78125 4.457031 35.746094 4.730469 33.074219 5.203125 C 25.207031 6.59375 23.777344 9.507812 23.777344 14.882812 L 23.777344 21.976562 L 42.371094 21.976562 L 42.371094 24.34375 L 16.800781 24.34375 C 11.398438 24.34375 6.664062 27.597656 5.1875 33.785156 C 3.480469 40.875 3.402344 45.300781 5.1875 52.707031 C 6.507812 58.21875 9.664062 62.148438 15.066406 62.148438 L 21.460938 62.148438 L 21.460938 53.640625 C 21.460938 47.496094 26.769531 42.074219 33.074219 42.074219 L 51.644531 42.074219 C 56.8125 42.074219 60.941406 37.8125 60.941406 32.613281 L 60.941406 14.882812 C 60.941406 9.835938 56.691406 6.042969 51.644531 5.203125 C 48.449219 4.671875 45.136719 4.429688 41.957031 4.441406 Z M 31.902344 10.152344 C 33.824219 10.152344 35.394531 11.746094 35.394531 13.710938 C 35.394531 15.664062 33.824219 17.246094 31.902344 17.246094 C 29.976562 17.246094 28.414062 15.664062 28.414062 13.710938 C 28.414062 11.746094 29.976562 10.152344 31.902344 10.152344 Z M 31.902344 10.152344 "/>
<path style=" stroke:none;fill-rule:nonzero;fill:url(#linear1);" d="M 63.257812 24.34375 L 63.257812 32.613281 C 63.257812 39.023438 57.832031 44.417969 51.644531 44.417969 L 33.074219 44.417969 C 27.988281 44.417969 23.777344 48.777344 23.777344 53.878906 L 23.777344 71.609375 C 23.777344 76.65625 28.160156 79.621094 33.074219 81.070312 C 38.960938 82.804688 44.601562 83.117188 51.644531 81.070312 C 56.324219 79.714844 60.941406 76.980469 60.941406 71.609375 L 60.941406 64.511719 L 42.371094 64.511719 L 42.371094 62.148438 L 70.238281 62.148438 C 75.640625 62.148438 77.652344 58.371094 79.53125 52.707031 C 81.472656 46.875 81.390625 41.265625 79.53125 33.785156 C 78.199219 28.394531 75.648438 24.34375 70.238281 24.34375 Z M 52.816406 69.242188 C 54.742188 69.242188 56.304688 70.824219 56.304688 72.78125 C 56.304688 74.742188 54.742188 76.339844 52.816406 76.339844 C 50.894531 76.339844 49.328125 74.742188 49.328125 72.78125 C 49.328125 70.824219 50.894531 69.242188 52.816406 69.242188 Z M 52.816406 69.242188 "/>
<path style=" stroke:none;fill-rule:nonzero;fill:rgb(39.215686%,39.215686%,39.215686%);fill-opacity:1;" d="M 321.4375 18.6875 L 322.519531 18.6875 L 322.519531 11.882812 L 325.085938 11.882812 L 325.085938 11.074219 L 318.871094 11.074219 L 318.871094 11.882812 L 321.4375 11.882812 L 321.4375 18.6875 M 326.046875 18.6875 L 326.96875 18.6875 L 326.96875 12.472656 L 328.980469 18.6875 L 330.007812 18.6875 L 332.101562 12.496094 L 332.101562 18.6875 L 333.109375 18.6875 L 333.109375 11.074219 L 331.777344 11.074219 L 329.488281 17.597656 L 327.539062 11.074219 L 326.046875 11.074219 L 326.046875 18.6875 "/>
<use xlink:href="#surface5" mask="url(#mask0)"/>
</g>
</svg>
