<svg xmlns="http://www.w3.org/2000/svg" viewBox="0 0 190.77 191.33"><defs><style>.cls-1{fill:#8dc867;}</style></defs><g id="Layer_2" data-name="Layer 2"><g id="Layer_1-2" data-name="Layer 1"><path class="cls-1" d="M96.59,191.33c-18.06-.75-34.32-4.3-49.07-13.2-9.5-5.73-12.63-14.72-8.2-22.93,4.53-8.41,14.27-10.51,24.23-5.25,25,13.25,52.36,10.31,73.59-8.15,5.67-4.93,10.69-10.45,11.07-18.68.28-6.14-1.69-11.07-7.29-14-5.33-2.77-10.67-3.05-15.83.68a43.44,43.44,0,0,0-7.53,7.07c-11,12.81-29.86,14-43.07,2.85a31.87,31.87,0,0,1-3.44-45.18C82.12,61.49,102,59.79,114.78,71c3.4,3,6.27,6.56,9.72,9.46,5.88,4.93,13.65,4.82,19,.13,5-4.4,6.85-13.1,3.66-18.94-4.58-8.41-11.51-14.49-19.5-19.61-11.23-7.21-13.84-14.63-8.46-22.82,5.65-8.59,17-10.51,26.86-4.57,32.59,19.6,51.79,63.2,42.22,103.33-8.85,37.08-42.75,67.88-80.85,72.18Z"/><path d="M30.64,165.54c-16.46-16-26-33.77-29.36-54.57C-7.77,55.41,32,2.3,94.53,0a81.53,81.53,0,0,1,26,3.74c4.07,1.21,5.27,2.81,1.14,5.43-7.17,4.55-10.65,11-10.31,19.44.24,5.76-3.54,4.72-7,4.24C75.76,29,50.33,42.28,38,68.14c-10.83,22.72-8.18,44.54,6.2,64.9,3.58,5.06,6.78,8.32-1.93,11.7C34.41,147.81,32.08,155.74,30.64,165.54Z"/></g></g></svg>